<svg width="468" height="453" viewBox="0 0 468 453" fill="none" xmlns="http://www.w3.org/2000/svg">
<path d="M226.303 8.66027C235.585 3.30128 247.021 3.30127 256.303 8.66025L422.454 104.587C431.736 109.946 437.454 119.85 437.454 130.568V322.422C437.454 333.14 431.736 343.044 422.454 348.403L256.303 444.33C247.021 449.689 235.585 449.689 226.303 444.33L60.1527 348.403C50.8707 343.044 45.1527 333.14 45.1527 322.423V130.568C45.1527 119.85 50.8707 109.946 60.1527 104.587L226.303 8.66027Z" fill="#EBF2FC"/>
<path fill-rule="evenodd" clip-rule="evenodd" d="M99.2357 401.481C99.2357 405.674 101.475 409.551 105.11 411.651C113.382 416.431 128.282 425.03 135.669 429.296C136.579 429.818 137.696 429.818 138.606 429.296C139.517 428.775 140.075 427.798 140.075 426.756C140.075 418.289 140.075 401.298 140.075 391.825C140.075 387.625 137.835 383.748 134.2 381.648C125.928 376.875 111.031 368.269 103.641 364.003C102.732 363.482 101.613 363.482 100.704 364.003C99.7952 364.532 99.2357 365.501 99.2357 366.551L99.2357 401.481Z" fill="#C8D8EC"/>
<path fill-rule="evenodd" clip-rule="evenodd" d="M49.6178 372.847C49.6178 377.047 51.8574 380.924 55.4921 383.024C63.7566 387.79 78.6275 396.381 86.0108 400.64C86.9191 401.169 88.0389 401.169 88.9479 400.64C89.8562 400.119 90.4165 399.149 90.4165 398.099C90.4165 389.633 90.4165 372.641 90.4165 363.169C90.4165 358.969 88.177 355.092 84.5415 352.992C76.2778 348.226 61.4069 339.635 54.0236 335.376C53.1153 334.855 51.9955 334.855 51.0864 335.376C50.1781 335.897 49.6178 336.867 49.6178 337.917C49.6178 346.383 49.6178 363.367 49.6178 372.847Z" fill="#C8D8EC"/>
<path fill-rule="evenodd" clip-rule="evenodd" d="M99.2357 344.527C99.2357 348.72 101.475 352.597 105.11 354.697C113.382 359.478 128.282 368.076 135.669 372.342C136.579 372.864 137.696 372.864 138.606 372.342C139.517 371.814 140.075 370.844 140.075 369.794C140.075 361.269 140.075 344.087 140.075 334.541C140.075 330.341 137.835 326.464 134.2 324.364C125.926 319.591 111.031 310.992 103.641 306.726C102.732 306.205 101.613 306.205 100.704 306.726C99.7952 307.255 99.2357 308.224 99.2357 309.274C99.2357 317.799 99.2357 334.982 99.2357 344.527Z" fill="#C8D8EC"/>
<path fill-rule="evenodd" clip-rule="evenodd" d="M5.70576e-06 344.197C3.607e-06 348.397 2.23959 352.274 5.87433 354.374C14.1417 359.147 29.0236 367.739 36.4091 371.997C37.3181 372.526 38.4379 372.526 39.3462 371.997C40.2553 371.476 40.8148 370.507 40.8148 369.457C40.8148 360.99 40.8148 344.006 40.8148 334.527C40.8148 330.334 38.576 326.457 34.9405 324.357C26.6731 319.584 11.792 310.993 4.40577 306.726C3.49745 306.205 2.37766 306.205 1.46861 306.726C0.560288 307.255 2.3681e-05 308.224 2.31563e-05 309.274C1.89258e-05 317.741 1.0439e-05 334.725 5.70576e-06 344.197Z" fill="#C8D8EC"/>
<path fill-rule="evenodd" clip-rule="evenodd" d="M49.6178 315.869C49.6178 320.069 51.8574 323.946 55.4929 326.046C63.7566 330.819 78.6275 339.403 86.0108 343.662C86.9191 344.19 88.0389 344.19 88.9479 343.662C89.8563 343.14 90.4165 342.171 90.4165 341.121C90.4165 332.596 90.4165 315.413 90.4165 305.868C90.4165 301.667 88.1762 297.79 84.5407 295.69C76.2763 290.925 61.4062 282.341 54.0236 278.082C53.1145 277.553 51.9955 277.553 51.0864 278.082C50.1781 278.603 49.6179 279.573 49.6179 280.623C49.6178 289.148 49.6178 306.323 49.6178 315.869Z" fill="#C8D8EC"/>
<path fill-rule="evenodd" clip-rule="evenodd" d="M189.726 245.381C189.726 241.181 187.487 237.304 183.851 235.204C175.578 230.431 160.68 221.832 153.293 217.566C152.383 217.038 151.267 217.038 150.356 217.566C149.446 218.088 148.887 219.057 148.887 220.107C148.887 228.698 148.887 246.086 148.887 255.705C148.887 259.904 151.127 263.783 154.762 265.881C163.034 270.658 177.931 279.258 185.321 283.525C186.23 284.049 187.35 284.049 188.258 283.525C189.167 283 189.726 282.03 189.726 280.981C189.726 272.388 189.726 255 189.726 245.381Z" fill="#C8D8EC"/>
<path fill-rule="evenodd" clip-rule="evenodd" d="M0 287.211C-2.09876e-06 291.411 2.23957 295.288 5.87504 297.388C14.1424 302.161 29.0236 310.753 36.4091 315.019C37.3181 315.54 38.4379 315.54 39.3462 315.019C40.2553 314.49 40.8148 313.521 40.8148 312.471C40.8148 303.946 40.8148 286.771 40.8148 277.225C40.8148 273.032 38.5753 269.151 34.9398 267.053C26.6717 262.28 11.7913 253.691 4.40577 249.429C3.49671 248.905 2.37765 248.905 1.4686 249.429C0.560283 249.954 1.81327e-05 250.923 1.76084e-05 251.972C1.33484e-05 260.498 4.76625e-06 277.673 0 287.211Z" fill="#C8D8EC"/>
<path fill-rule="evenodd" clip-rule="evenodd" d="M49.6178 258.572C49.6178 262.77 51.8582 266.649 55.4936 268.747C63.7581 273.516 78.6282 282.1 86.0108 286.359C86.9198 286.888 88.0389 286.888 88.9479 286.359C89.8563 285.838 90.4165 284.869 90.4165 283.819C90.4165 275.227 90.4165 257.833 90.4165 248.212C90.4165 244.015 88.177 240.136 84.5422 238.038C76.2785 233.266 61.4069 224.681 54.0236 220.418C53.1153 219.893 51.9955 219.893 51.0864 220.418C50.1781 220.943 49.6179 221.913 49.6179 222.962C49.6178 231.556 49.6178 248.95 49.6178 258.572Z" fill="#C8D8EC"/>
<path fill-rule="evenodd" clip-rule="evenodd" d="M154.776 381.662C151.141 383.755 148.902 387.639 148.902 391.832C148.902 401.312 148.902 418.296 148.902 426.762C148.902 427.805 149.46 428.781 150.37 429.303C151.281 429.824 152.397 429.824 153.307 429.303C160.694 425.037 175.578 416.445 183.839 411.672C187.474 409.572 189.714 405.695 189.714 401.495C189.714 392.023 189.714 375.039 189.714 366.572C189.714 365.522 189.155 364.553 188.245 364.032C187.342 363.503 186.218 363.503 185.308 364.032C177.928 368.29 163.044 376.889 154.776 381.662Z" fill="#A6B7CA"/>
<path fill-rule="evenodd" clip-rule="evenodd" d="M204.394 353.023C200.759 355.116 198.52 359 198.52 363.193C198.52 372.673 198.52 389.657 198.52 398.124C198.52 399.174 199.085 400.143 199.988 400.664C200.899 401.186 202.022 401.186 202.925 400.664C210.312 396.405 225.182 387.814 233.443 383.049C237.085 380.949 239.317 377.071 239.317 372.871C239.317 363.399 239.317 346.407 239.317 337.948C239.317 336.891 238.759 335.929 237.848 335.4C236.945 334.879 235.822 334.879 234.911 335.4C227.532 339.659 212.662 348.25 204.394 353.023Z" fill="#A6B7CA"/>
<path fill-rule="evenodd" clip-rule="evenodd" d="M154.776 324.381C151.141 326.481 148.902 330.358 148.902 334.558C148.902 344.097 148.902 361.272 148.902 369.797C148.902 370.847 149.46 371.816 150.37 372.338C151.281 372.866 152.397 372.866 153.308 372.338C160.695 368.079 175.579 359.487 183.839 354.707C187.474 352.614 189.714 348.737 189.714 344.537C189.714 334.991 189.714 317.824 189.714 309.299C189.714 308.249 189.156 307.279 188.245 306.751C187.342 306.229 186.218 306.229 185.308 306.751C177.928 311.017 163.044 319.608 154.776 324.381Z" fill="#A6B7CA"/>
<path fill-rule="evenodd" clip-rule="evenodd" d="M288.979 309.274C288.979 308.224 288.421 307.255 287.51 306.726C286.607 306.205 285.483 306.205 284.573 306.726C277.186 310.993 262.287 319.598 254.012 324.371C250.377 326.471 248.137 330.348 248.137 334.549C248.137 344.021 248.137 361.005 248.137 369.472C248.137 370.522 248.703 371.491 249.606 372.012C250.516 372.541 251.64 372.541 252.543 372.012C259.937 367.746 274.836 359.147 283.104 354.374C286.739 352.274 288.979 348.397 288.979 344.197C288.979 334.725 288.979 317.741 288.979 309.274Z" fill="#A6B7CA"/>
<path fill-rule="evenodd" clip-rule="evenodd" d="M204.394 295.722C200.759 297.822 198.52 301.699 198.52 305.899L198.52 341.138C198.52 342.188 199.085 343.157 199.988 343.678C200.899 344.207 202.022 344.207 202.925 343.678C210.312 339.42 225.182 330.836 233.443 326.063C237.085 323.963 239.317 320.086 239.317 315.886L239.317 280.647C239.317 279.597 238.759 278.628 237.848 278.106C236.945 277.578 235.822 277.578 234.911 278.106C227.532 282.365 212.662 290.956 204.394 295.722Z" fill="#A6B7CA"/>
<path fill-rule="evenodd" clip-rule="evenodd" d="M134.186 265.895C137.821 263.796 140.061 259.918 140.061 255.719C140.061 246.1 140.061 228.697 140.061 220.099C140.061 219.049 139.502 218.079 138.592 217.558C137.681 217.029 136.565 217.029 135.655 217.558C128.268 221.824 113.384 230.416 105.123 235.188C101.488 237.289 99.2487 241.166 99.2487 245.358C99.2487 254.985 99.2487 272.385 99.2487 280.98C99.2487 282.03 99.8067 283 100.717 283.525C101.62 284.049 102.744 284.049 103.654 283.525C111.034 279.26 125.918 270.668 134.186 265.895Z" fill="#A6B7CA"/>
<path fill-rule="evenodd" clip-rule="evenodd" d="M254.012 267.073C250.377 269.172 248.137 273.054 248.137 277.246C248.137 286.792 248.137 303.96 248.137 312.485C248.137 313.535 248.703 314.504 249.606 315.033C250.517 315.554 251.64 315.554 252.543 315.033C259.938 310.767 274.836 302.161 283.104 297.388C286.739 295.288 288.979 291.411 288.979 287.211C288.979 277.672 288.979 260.499 288.979 251.974C288.979 250.925 288.421 249.955 287.51 249.431C286.607 248.906 285.484 248.906 284.573 249.431C277.186 253.697 262.287 262.298 254.012 267.073Z" fill="#A6B7CA"/>
<path fill-rule="evenodd" clip-rule="evenodd" d="M204.394 238.061C200.759 240.159 198.52 244.038 198.52 248.236C198.52 257.859 198.52 275.259 198.52 283.857C198.52 284.907 199.085 285.876 199.988 286.398C200.899 286.926 202.022 286.926 202.925 286.398C210.312 282.139 225.182 273.548 233.443 268.779C237.085 266.681 239.317 262.802 239.317 258.604C239.317 248.981 239.317 231.581 239.317 222.985C239.317 221.936 238.759 220.966 237.848 220.441C236.945 219.916 235.822 219.916 234.911 220.441C227.532 224.704 212.662 233.29 204.394 238.061Z" fill="#A6B7CA"/>
<path fill-rule="evenodd" clip-rule="evenodd" d="M207.284 179.063C206.373 179.588 205.815 180.557 205.815 181.607C205.815 182.656 206.373 183.626 207.284 184.15C214.671 188.416 237.823 201.787 237.823 201.787L237.837 161.419C237.837 161.419 214.671 174.796 207.284 179.063Z" fill="#A6B7CA"/>
<path fill-rule="evenodd" clip-rule="evenodd" d="M0 229.929C-2.09766e-06 234.127 2.24033 238.006 5.8758 240.104C14.1439 244.876 29.0243 253.465 36.4098 257.728C37.3181 258.253 38.4379 258.253 39.347 257.728C40.2553 257.204 40.8148 256.234 40.8148 255.184C40.8148 246.59 40.8148 229.193 40.8148 219.571C40.8148 215.374 38.576 211.496 34.9405 209.397C26.6731 204.623 11.792 196.031 4.40576 191.767C3.49745 191.242 2.37765 191.242 1.4686 191.767C0.560283 192.292 1.83224e-05 193.262 1.77981e-05 194.311C1.35029e-05 202.906 4.80882e-06 220.306 0 229.929Z" fill="#57A3FF"/>
<path fill-rule="evenodd" clip-rule="evenodd" d="M8.81221 179.053C7.90389 179.577 7.34363 180.547 7.34363 181.596C7.34363 182.646 7.90389 183.615 8.81221 184.14C16.1955 188.402 31.0671 196.988 39.3308 201.759C42.9656 203.858 47.444 203.858 51.0795 201.759C59.3469 196.986 74.228 188.394 81.6142 184.13C82.5226 183.605 83.0828 182.636 83.0828 181.586C83.0828 180.537 82.5226 179.567 81.6142 179.042C74.2309 174.781 59.3601 166.195 51.0956 161.423C47.4609 159.324 42.9824 159.324 39.347 161.423C31.0796 166.196 16.1984 174.788 8.81221 179.053Z" fill="#9FCDFF"/>
<path fill-rule="evenodd" clip-rule="evenodd" d="M180.866 296.24C181.774 295.715 182.335 294.745 182.335 293.696C182.335 292.647 181.774 291.677 180.866 291.152C173.478 286.886 158.587 278.291 150.319 273.515C146.684 271.417 142.205 271.417 138.57 273.515C130.302 278.289 115.418 286.881 108.038 291.145C107.128 291.669 106.57 292.639 106.57 293.689C106.57 294.738 107.128 295.708 108.038 296.232C115.425 300.498 130.309 309.094 138.585 313.868C142.22 315.967 146.699 315.967 150.333 313.868C158.602 309.096 173.48 300.504 180.866 296.24Z" fill="white"/>
<path fill-rule="evenodd" clip-rule="evenodd" d="M283.104 240.109L248.137 219.589C248.137 219.589 248.137 246.612 248.137 255.208C248.137 256.258 248.703 257.227 249.606 257.752C250.516 258.276 251.64 258.276 252.543 257.752C259.937 253.485 283.104 240.109 283.104 240.109Z" fill="white"/>
<path fill-rule="evenodd" clip-rule="evenodd" d="M157.666 207.717C156.762 208.241 156.197 209.211 156.197 210.261C156.197 211.31 156.762 212.279 157.666 212.804C165.06 217.07 179.944 225.666 188.212 230.44C191.847 232.539 196.326 232.539 199.961 230.44C208.229 225.669 223.098 217.083 230.478 212.821C231.389 212.296 231.947 211.327 231.947 210.278C231.947 209.227 231.389 208.258 230.478 207.733C223.091 203.468 208.207 194.872 199.939 190.097C196.297 187.998 191.825 187.998 188.19 190.097C179.922 194.868 165.053 203.454 157.666 207.717Z" fill="white"/>
<path fill-rule="evenodd" clip-rule="evenodd" d="M58.43 207.703C57.521 208.228 56.9614 209.197 56.9614 210.246C56.9614 211.296 57.521 212.266 58.43 212.79C65.8177 217.055 80.7069 225.652 88.9765 230.426C92.612 232.525 97.0904 232.525 100.725 230.426C108.993 225.653 123.874 217.061 131.258 212.797C132.168 212.272 132.726 211.303 132.726 210.254C132.726 209.204 132.168 208.234 131.258 207.71C123.872 203.444 108.983 194.848 100.713 190.073C97.0779 187.974 92.5995 187.974 88.9648 190.073C80.6974 194.847 65.8155 203.439 58.43 207.703Z" fill="white"/>
<path fill-rule="evenodd" clip-rule="evenodd" d="M108.048 179.043C107.139 179.568 106.579 180.537 106.579 181.586C106.579 182.636 107.139 183.605 108.048 184.13C115.436 188.396 130.324 196.992 138.592 201.767C142.227 203.865 146.706 203.865 150.341 201.767C158.609 196.995 173.478 188.409 180.865 184.147C181.769 183.622 182.334 182.652 182.334 181.603C182.334 180.554 181.769 179.584 180.865 179.059C173.471 174.794 158.587 166.198 150.311 161.423C146.677 159.325 142.198 159.325 138.563 161.423C130.302 166.195 115.43 174.781 108.048 179.043Z" fill="white"/>
<path fill-rule="evenodd" clip-rule="evenodd" d="M157.666 150.417C156.762 150.941 156.197 151.911 156.197 152.96C156.197 154.01 156.762 154.98 157.666 155.504C165.06 159.769 179.944 168.366 188.22 173.14C191.854 175.239 196.326 175.239 199.968 173.14C208.236 168.364 223.135 159.764 230.522 155.497C231.433 154.972 231.991 154.002 231.991 152.953C231.991 151.904 231.433 150.934 230.522 150.409C223.135 146.144 208.244 137.548 199.976 132.773C196.341 130.675 191.862 130.675 188.227 132.773C179.959 137.55 165.06 146.15 157.666 150.417Z" fill="white"/>
<path fill-rule="evenodd" clip-rule="evenodd" d="M58.43 150.417C57.5217 150.942 56.9614 151.912 56.9614 152.961C56.9614 154.01 57.5217 154.98 58.43 155.505C65.8133 159.767 80.6849 168.353 88.9486 173.124C92.5834 175.223 97.0618 175.223 100.697 173.124C108.961 168.353 123.833 159.767 131.212 155.505C132.123 154.98 132.681 154.01 132.681 152.961C132.681 151.912 132.123 150.942 131.212 150.417C123.833 146.155 108.961 137.569 100.697 132.797C97.0618 130.699 92.5834 130.699 88.9486 132.797C80.6849 137.569 65.8133 146.155 58.43 150.417Z" fill="white"/>
<path fill-rule="evenodd" clip-rule="evenodd" d="M108.048 121.767C107.139 122.292 106.579 123.261 106.579 124.311C106.579 125.361 107.139 126.33 108.048 126.855C115.43 131.117 130.302 139.703 138.563 144.474C142.198 146.573 146.677 146.573 150.311 144.474C158.587 139.698 173.486 131.098 180.873 126.831C181.783 126.306 182.341 125.336 182.341 124.287C182.341 123.238 181.783 122.268 180.873 121.743C173.493 117.481 158.616 108.895 150.356 104.124C146.721 102.025 142.242 102.025 138.607 104.124C130.331 108.9 115.438 117.5 108.048 121.767Z" fill="white"/>
<path fill-rule="evenodd" clip-rule="evenodd" d="M338.458 154.993C334.38 157.347 331.868 161.698 331.868 166.409C331.868 177.2 331.868 196.723 331.868 206.369C331.868 207.547 332.494 208.634 333.515 209.219C334.537 209.812 335.789 209.812 336.81 209.219C345.097 204.433 361.794 194.795 371.062 189.441C375.139 187.085 377.652 182.735 377.652 178.032C377.652 167.232 377.652 147.713 377.652 138.07C377.652 136.892 377.026 135.805 376.004 135.216C374.991 134.627 373.731 134.627 372.709 135.216C364.431 140 347.733 149.639 338.458 154.993Z" fill="#30B01E"/>
<path fill-rule="evenodd" clip-rule="evenodd" d="M276.162 178.005C276.162 182.717 278.675 187.066 282.753 189.422C292.034 194.777 308.747 204.423 317.034 209.209C318.056 209.802 319.308 209.802 320.329 209.209C321.351 208.624 321.977 207.537 321.977 206.359C321.977 196.721 321.977 177.214 321.977 166.423C321.977 161.713 319.465 157.362 315.387 155.008C306.107 149.649 289.395 140.001 281.105 135.214C280.085 134.626 278.829 134.626 277.81 135.214C276.79 135.803 276.162 136.891 276.162 138.068C276.162 147.707 276.162 167.214 276.162 178.005Z" fill="#47CF34"/>
<path fill-rule="evenodd" clip-rule="evenodd" d="M286.07 120.951C285.051 121.54 284.422 122.628 284.422 123.805C284.422 124.982 285.051 126.07 286.069 126.658C294.358 131.444 311.063 141.087 320.338 146.444C324.416 148.798 329.441 148.798 333.518 146.444C342.794 141.089 359.491 131.45 367.77 126.667C368.792 126.078 369.418 124.99 369.418 123.813C369.418 122.636 368.792 121.548 367.77 120.96C359.483 116.174 342.786 106.531 333.502 101.175C329.424 98.8204 324.4 98.8204 320.322 101.175C311.047 106.529 294.356 116.168 286.07 120.951Z" fill="#77F565"/>
<path fill-rule="evenodd" clip-rule="evenodd" d="M435.106 235.028C432.678 236.43 431.181 239.022 431.181 241.827C431.181 248.255 431.181 259.883 431.181 265.628C431.181 266.33 431.554 266.978 432.162 267.326C432.771 267.679 433.516 267.679 434.125 267.326C439.061 264.475 449.006 258.735 454.526 255.546C456.954 254.143 458.451 251.552 458.451 248.75C458.451 242.318 458.451 230.692 458.451 224.948C458.451 224.247 458.078 223.599 457.47 223.248C456.866 222.898 456.115 222.898 455.507 223.248C450.576 226.098 440.631 231.839 435.106 235.028Z" fill="#287EE7"/>
<path fill-rule="evenodd" clip-rule="evenodd" d="M398.002 248.734C398.002 251.541 399.498 254.131 401.928 255.535C407.456 258.724 417.41 264.469 422.346 267.32C422.954 267.673 423.7 267.673 424.309 267.32C424.917 266.972 425.29 266.324 425.29 265.622C425.29 259.882 425.29 248.263 425.29 241.836C425.29 239.031 423.794 236.439 421.365 235.037C415.837 231.845 405.884 226.099 400.946 223.248C400.338 222.897 399.59 222.897 398.983 223.248C398.376 223.598 398.002 224.246 398.002 224.947C398.002 230.689 398.002 242.307 398.002 248.734Z" fill="#57A3FF"/>
<path fill-rule="evenodd" clip-rule="evenodd" d="M403.903 214.752C403.296 215.103 402.922 215.751 402.922 216.452C402.922 217.153 403.296 217.801 403.903 218.151C408.84 221.002 418.789 226.745 424.314 229.936C426.743 231.338 429.736 231.338 432.164 229.936C437.689 226.746 447.634 221.005 452.565 218.156C453.174 217.806 453.546 217.158 453.546 216.457C453.546 215.756 453.174 215.107 452.565 214.757C447.629 211.907 437.684 206.163 432.155 202.973C429.726 201.571 426.733 201.571 424.304 202.973C418.78 206.162 408.838 211.903 403.903 214.752Z" fill="#9FCDFF"/>
</svg>
