<svg width="27" height="29" viewBox="0 0 27 29" fill="none" xmlns="http://www.w3.org/2000/svg">
<path fill-rule="evenodd" clip-rule="evenodd" d="M16.6597 15.0584C15.5839 15.6587 14.9211 16.7683 14.9211 17.9695C14.9211 20.7213 14.9211 25.6999 14.9211 28.1597C14.9211 28.4601 15.0862 28.7374 15.3557 28.8866C15.6252 29.0378 15.9555 29.0378 16.225 28.8866C18.4113 27.6661 22.8165 25.2083 25.2614 23.8429C26.3372 23.2421 27 22.133 27 20.9335C27 18.1795 27 13.2018 27 10.7428C27 10.4424 26.8349 10.1651 26.5654 10.0149C26.2981 9.86494 25.9656 9.86494 25.6961 10.0149C23.512 11.235 19.1068 13.693 16.6597 15.0584Z" fill="#287EE7"/>
<path fill-rule="evenodd" clip-rule="evenodd" d="M4.42256e-08 20.9283C-1.44686e-06 22.13 0.662393 23.2393 1.73765 23.8402C4.18463 25.2057 8.59101 27.6659 10.7759 28.8865C11.0452 29.0378 11.3753 29.0378 11.6446 28.8865C11.9139 28.7374 12.0789 28.4601 12.0789 28.1596C12.0789 25.7016 12.0789 20.7266 12.0789 17.9744C12.0789 16.7731 11.4165 15.6634 10.3415 15.063C7.89475 13.6964 3.4888 11.2358 1.3031 10.0149C1.03423 9.86493 0.703028 9.86493 0.434375 10.0149C0.165505 10.1652 1.3055e-05 10.4425 1.26825e-05 10.7427C9.63199e-06 13.2012 3.45912e-06 18.1761 4.42256e-08 20.9283Z" fill="#57A3FF"/>
<path fill-rule="evenodd" clip-rule="evenodd" d="M2.57231 5.93244C2.29973 6.09464 2.13159 6.39409 2.13159 6.71826C2.13159 7.04243 2.29972 7.3421 2.57231 7.50407C4.78956 8.82207 9.25822 11.4776 11.7395 12.9528C12.8302 13.6011 14.1744 13.6011 15.2652 12.9528C17.7464 11.478 22.2131 8.82367 24.4277 7.50636C24.701 7.34439 24.8684 7.04471 24.8684 6.72054C24.8684 6.39637 24.701 6.09671 24.4277 5.93474C22.2109 4.61696 17.7442 1.96123 15.2608 0.486254C14.17 -0.162083 12.8258 -0.162085 11.7351 0.48625C9.25381 1.96077 4.7889 4.61513 2.57231 5.93244Z" fill="#9FCDFF"/>
</svg>
