<svg width="78" height="74" viewBox="0 0 78 74" fill="none" xmlns="http://www.w3.org/2000/svg">
<path d="M31.4042 26.48C31.4033 27.0408 31.8817 27.4961 32.4708 27.4952C33.0599 27.4961 33.5374 27.0416 33.5374 26.48C33.5374 25.9201 33.0591 25.4648 32.4708 25.4648C31.8807 25.4648 31.4033 25.9192 31.4042 26.48Z" fill="white"/>
<path d="M32.5504 29.5271C31.9627 29.5697 31.5227 30.0576 31.5675 30.6169C31.7057 32.3408 32.0084 35.5537 32.482 37.7062C32.6026 38.2552 33.1682 38.6072 33.7449 38.492C34.3238 38.3764 34.6907 37.8369 34.5705 37.2899C34.1048 35.1741 33.803 31.8106 33.6954 30.4626C33.6506 29.9033 33.1378 29.4847 32.5504 29.5271Z" fill="white"/>
<path d="M33.5376 20.3871C33.5368 23.1932 35.9219 25.4652 38.8713 25.4644C41.8205 25.4652 44.2066 23.1946 44.2054 20.3871C44.2054 17.5812 41.8202 15.3103 38.8718 15.3103C35.924 15.3103 33.5376 17.5806 33.5376 20.3871ZM42.0719 20.3873C42.0716 20.3876 42.0716 20.3876 42.0716 20.3876C42.0722 22.0714 40.6425 23.4339 38.8713 23.4333C37.1023 23.4339 35.6708 22.0725 35.6717 20.3873C35.6717 18.7036 37.1026 17.3416 38.8718 17.3414C40.6401 17.3414 42.0716 18.7033 42.0719 20.3873Z" fill="white"/>
<path d="M39.9391 72.3268L39.9389 63.3491C39.9391 62.7883 39.4614 62.3335 38.8719 62.3335C38.2829 62.3338 37.8054 62.7883 37.8051 63.3491V72.3266C37.8051 72.8876 38.2829 73.3424 38.8722 73.3424C39.4614 73.3421 39.9389 72.8876 39.9391 72.3268Z" fill="white"/>
<path d="M47.4833 65.1456L47.483 56.1679C47.483 55.6074 47.0052 55.1526 46.4161 55.1523C45.8269 55.1526 45.3494 55.6071 45.3489 56.1681V65.1456C45.3492 65.7064 45.8269 66.1612 46.4161 66.1614C47.0055 66.1609 47.483 65.7064 47.4833 65.1456Z" fill="white"/>
<path d="M31.3282 66.1614C31.9174 66.1611 32.3948 65.7066 32.3951 65.1458V56.1683C32.3951 55.6073 31.9174 55.1525 31.3282 55.1528C30.7387 55.1528 30.2614 55.6073 30.2614 56.1683V65.1458C30.261 65.7066 30.7387 66.1614 31.3282 66.1614Z" fill="white"/>
<path d="M39.6663 0.989746C39.4642 0.774299 39.1747 0.651427 38.8712 0.651428C38.5676 0.651428 38.2773 0.774019 38.076 0.989746C34.4557 4.84309 27.1353 15.3085 27.1353 26.4814C27.1353 28.8805 27.2841 31.2922 27.5745 33.6613C21.9438 37.2597 18.5999 43.2075 18.6001 49.684C18.6001 51.5035 18.8665 53.3062 19.392 55.043C19.6883 56.0212 21.148 56.0164 21.4425 55.0433C22.7934 50.5873 25.9676 46.8563 30.2341 44.6564C30.6048 45.5625 31.0001 46.3892 31.4149 47.1214C31.88 47.9456 32.7415 48.4991 33.7294 48.6354C33.6879 48.9976 33.6664 49.3648 33.6664 49.7351C33.6664 53.4319 38.0041 58.3126 38.1889 58.5187C38.5939 58.9704 39.3163 58.9954 39.7548 58.5779C39.7745 58.5591 39.7937 58.5392 39.8119 58.519C39.9964 58.3131 44.3357 53.4322 44.3359 49.7351C44.3359 49.3496 44.3127 48.9673 44.2678 48.5908C45.1626 48.3978 45.9092 47.8634 46.3274 47.1231C46.7426 46.3901 47.1378 45.5628 47.5089 44.6564C51.7751 46.856 54.9495 50.5873 56.3005 55.0433C56.5994 56.0296 58.0588 56.006 58.3506 55.0427C58.8764 53.3062 59.1428 51.5035 59.1428 49.684C59.1428 43.2077 55.7986 37.2597 50.1682 33.6616C50.4585 31.292 50.6073 28.8803 50.6073 26.4812C50.6073 20.9811 48.9201 15.2081 45.5929 9.32175C43.9775 6.3703 41.2982 2.7265 39.6663 0.989746ZM20.7934 51.0957C20.7537 50.6275 20.7336 50.1562 20.734 49.684C20.7336 44.2297 23.3862 39.1948 27.8986 35.937C28.3007 38.3877 28.8518 40.6931 29.5208 42.7168C25.7392 44.5888 22.6986 47.5273 20.7934 51.0957ZM42.2021 49.7351C42.2021 51.71 40.3147 54.5479 38.9999 56.2246C37.6858 54.5495 35.8001 51.7145 35.8001 49.7351C35.8001 49.3743 35.8256 49.0181 35.8742 48.6688H42.1276C42.1765 49.0178 42.2018 49.374 42.2021 49.7351ZM44.4485 46.16C44.2843 46.4504 43.9266 46.6378 43.5369 46.6378C41.3819 46.6378 35.2369 46.6378 34.2061 46.6378C33.8161 46.638 33.4584 46.4501 33.2935 46.1586C32.8999 45.464 32.5231 44.6707 32.1695 43.7921C34.2962 42.9847 36.5455 42.5757 38.8709 42.5751C41.1968 42.5757 43.4462 42.9847 45.5729 43.7921C45.2192 44.6707 44.8426 45.4646 44.4485 46.16ZM57.009 49.684C57.009 50.1564 56.989 50.6272 56.9489 51.0957C55.0441 47.527 52.0035 44.5885 48.2218 42.7165C48.8905 40.6931 49.4417 38.3877 49.8438 35.937C54.3568 39.1948 57.0087 44.2297 57.009 49.684ZM48.4736 26.4812C48.4732 31.4362 47.7962 37.1144 46.2646 41.869C43.916 40.9907 41.4344 40.5447 38.8709 40.5441C36.3077 40.5449 33.8264 40.9907 31.4781 41.8693C29.9464 37.1146 29.2691 31.4362 29.2691 26.4814C29.2691 21.4819 30.7722 16.2113 33.738 10.8063H44.0043C46.9705 16.211 48.4732 21.4819 48.4736 26.4812ZM42.8235 8.775L34.919 8.77499C36.476 6.24434 37.9864 4.31626 38.8712 3.25754C39.7559 4.31626 41.2667 6.24406 42.8235 8.775Z" fill="white"/>
</svg>
