<svg width="53" height="52" viewBox="0 0 53 52" fill="none" xmlns="http://www.w3.org/2000/svg">
<path d="M25.963 51.963C25.0965 51.9647 24.2568 51.6629 23.5896 51.1101L1.33964 32.5684C0.582341 31.9389 0.1061 31.0344 0.0156918 30.0539C-0.0747164 29.0733 0.228113 28.0969 0.85756 27.3396C1.48701 26.5823 2.39151 26.1061 3.37209 26.0157C4.35267 25.9253 5.32901 26.2281 6.08631 26.8576L25.963 43.4709L45.8396 27.4509C46.219 27.1429 46.6554 26.9128 47.1239 26.774C47.5924 26.6352 48.0838 26.5904 48.5697 26.642C49.0556 26.6937 49.5264 26.8409 49.9553 27.0752C50.3841 27.3095 50.7624 27.6262 51.0684 28.0071C51.408 28.3884 51.6652 28.8358 51.8239 29.3211C51.9826 29.8064 52.0393 30.3193 51.9906 30.8275C51.9419 31.3358 51.7887 31.8286 51.5407 32.2749C51.2926 32.7212 50.9551 33.1115 50.5492 33.4213L28.2992 51.3326C27.6129 51.798 26.7903 52.02 25.963 51.963Z" fill="#EBF2FC"/>
<path d="M25.963 25.963C25.0965 25.9647 24.2568 25.6629 23.5896 25.1101L1.33964 6.5684C0.582341 5.93895 0.1061 5.03444 0.0156918 4.05386C-0.0747164 3.07328 0.228113 2.09695 0.85756 1.33964C1.48701 0.582339 2.39151 0.1061 3.37209 0.0156919C4.35267 -0.0747163 5.32901 0.228111 6.08631 0.857559L25.963 17.4709L45.8396 1.45089C46.219 1.14286 46.6554 0.912824 47.1239 0.774015C47.5924 0.635206 48.0838 0.590358 48.5697 0.642049C49.0556 0.69374 49.5264 0.840949 49.9553 1.07522C50.3841 1.30949 50.7624 1.6262 51.0684 2.00714C51.408 2.38844 51.6652 2.83576 51.8239 3.32109C51.9826 3.80641 52.0393 4.31927 51.9906 4.82755C51.9419 5.33583 51.7887 5.82856 51.5407 6.27488C51.2926 6.72121 50.9551 7.1115 50.5492 7.42131L28.2992 25.3326C27.6129 25.798 26.7903 26.02 25.963 25.963Z" fill="#EBF2FC"/>
</svg>
